<?xml version="1.0" encoding="utf-8"?>
<!-- Generator: Adobe Illustrator 26.0.3, SVG Export Plug-In . SVG Version: 6.00 Build 0)  -->
<svg version="1.1"
	 id="svg8" xmlns:cc="http://creativecommons.org/ns#" xmlns:dc="http://purl.org/dc/elements/1.1/" xmlns:inkscape="http://www.inkscape.org/namespaces/inkscape" xmlns:rdf="http://www.w3.org/1999/02/22-rdf-syntax-ns#" xmlns:sodipodi="http://sodipodi.sourceforge.net/DTD/sodipodi-0.dtd" xmlns:svg="http://www.w3.org/2000/svg"
	 xmlns="http://www.w3.org/2000/svg" xmlns:xlink="http://www.w3.org/1999/xlink" x="0px" y="0px" viewBox="0 0 775.7 775.7"
	 style="enable-background:new 0 0 775.7 775.7;" xml:space="preserve">
<style type="text/css">
	.st0{fill:#000F24;}
</style>
<defs>
	
		<inkscape:path-effect  copytype="single_stretched" effect="skeletal" fuse_tolerance="0" id="path-effect410" is_visible="true" normal_offset="0" pattern="m 370.7757,184.79453 c 0,0 -55.69789,4.20933 -58.02264,4.20933 -2.32474,0 -4.20932,-1.88458 -4.20932,-4.20933 0,-2.32474 1.88458,-4.20932 4.20932,-4.20932 2.32475,0 58.02264,4.20932 58.02264,4.20932 z" prop_scale="0.26458335" prop_units="false" scale_y_rel="false" spacing="0" tang_offset="0" vertical_pattern="false">
		</inkscape:path-effect>
	
		<inkscape:path-effect  copytype="single_stretched" effect="skeletal" fuse_tolerance="0" id="path-effect400" is_visible="true" normal_offset="0" pattern="m 370.7757,184.79453 c 0,0 -55.69789,4.20933 -58.02264,4.20933 -2.32474,0 -4.20932,-1.88458 -4.20932,-4.20933 0,-2.32474 1.88458,-4.20932 4.20932,-4.20932 2.32475,0 58.02264,4.20932 58.02264,4.20932 z" prop_scale="0.26458335" prop_units="false" scale_y_rel="false" spacing="0" tang_offset="0" vertical_pattern="false">
		</inkscape:path-effect>
	
		<inkscape:path-effect  copytype="single_stretched" effect="skeletal" fuse_tolerance="0" id="path-effect390" is_visible="true" normal_offset="0" pattern="m 370.7757,184.79453 c 0,0 -55.69789,4.20933 -58.02264,4.20933 -2.32474,0 -4.20932,-1.88458 -4.20932,-4.20933 0,-2.32474 1.88458,-4.20932 4.20932,-4.20932 2.32475,0 58.02264,4.20932 58.02264,4.20932 z" prop_scale="0.26458335" prop_units="false" scale_y_rel="false" spacing="0" tang_offset="0" vertical_pattern="false">
		</inkscape:path-effect>
	
		<inkscape:path-effect  copytype="single_stretched" effect="skeletal" fuse_tolerance="0" id="path-effect380" is_visible="true" normal_offset="0" pattern="m 370.7757,184.79453 c 0,0 -55.69789,4.20933 -58.02264,4.20933 -2.32474,0 -4.20932,-1.88458 -4.20932,-4.20933 0,-2.32474 1.88458,-4.20932 4.20932,-4.20932 2.32475,0 58.02264,4.20932 58.02264,4.20932 z" prop_scale="0.26458335" prop_units="false" scale_y_rel="false" spacing="0" tang_offset="0" vertical_pattern="false">
		</inkscape:path-effect>
	
		<inkscape:path-effect  copytype="single_stretched" effect="skeletal" fuse_tolerance="0" id="path-effect370" is_visible="true" normal_offset="0" pattern="m 370.7757,184.79453 c 0,0 -55.69789,4.20933 -58.02264,4.20933 -2.32474,0 -4.20932,-1.88458 -4.20932,-4.20933 0,-2.32474 1.88458,-4.20932 4.20932,-4.20932 2.32475,0 58.02264,4.20932 58.02264,4.20932 z" prop_scale="0.26458335" prop_units="false" scale_y_rel="false" spacing="0" tang_offset="0" vertical_pattern="false">
		</inkscape:path-effect>
	
		<inkscape:path-effect  copytype="single_stretched" effect="skeletal" fuse_tolerance="0" id="path-effect360" is_visible="true" normal_offset="0" pattern="m 370.7757,184.79453 c 0,0 -55.69789,4.20933 -58.02264,4.20933 -2.32474,0 -4.20932,-1.88458 -4.20932,-4.20933 0,-2.32474 1.88458,-4.20932 4.20932,-4.20932 2.32475,0 58.02264,4.20932 58.02264,4.20932 z" prop_scale="0.26458335" prop_units="false" scale_y_rel="false" spacing="0" tang_offset="0" vertical_pattern="false">
		</inkscape:path-effect>
	
		<inkscape:path-effect  copytype="single_stretched" effect="skeletal" fuse_tolerance="0" id="path-effect350" is_visible="true" normal_offset="0" pattern="m 370.7757,184.79453 c 0,0 -55.69789,4.20933 -58.02264,4.20933 -2.32474,0 -4.20932,-1.88458 -4.20932,-4.20933 0,-2.32474 1.88458,-4.20932 4.20932,-4.20932 2.32475,0 58.02264,4.20932 58.02264,4.20932 z" prop_scale="0.26458335" prop_units="false" scale_y_rel="false" spacing="0" tang_offset="0" vertical_pattern="false">
		</inkscape:path-effect>
	
		<inkscape:path-effect  copytype="single_stretched" effect="skeletal" fuse_tolerance="0" id="path-effect340" is_visible="true" normal_offset="0" pattern="m 370.7757,184.79453 c 0,0 -55.69789,4.20933 -58.02264,4.20933 -2.32474,0 -4.20932,-1.88458 -4.20932,-4.20933 0,-2.32474 1.88458,-4.20932 4.20932,-4.20932 2.32475,0 58.02264,4.20932 58.02264,4.20932 z" prop_scale="0.26458335" prop_units="false" scale_y_rel="false" spacing="0" tang_offset="0" vertical_pattern="false">
		</inkscape:path-effect>
	
		<inkscape:path-effect  copytype="single_stretched" effect="skeletal" fuse_tolerance="0" id="path-effect330" is_visible="true" normal_offset="0" pattern="m 370.7757,184.79453 c 0,0 -55.69789,4.20933 -58.02264,4.20933 -2.32474,0 -4.20932,-1.88458 -4.20932,-4.20933 0,-2.32474 1.88458,-4.20932 4.20932,-4.20932 2.32475,0 58.02264,4.20932 58.02264,4.20932 z" prop_scale="0.26458335" prop_units="false" scale_y_rel="false" spacing="0" tang_offset="0" vertical_pattern="false">
		</inkscape:path-effect>
	
		<inkscape:path-effect  copytype="single_stretched" effect="skeletal" fuse_tolerance="0" id="path-effect320" is_visible="true" normal_offset="0" pattern="m 370.7757,184.79453 c 0,0 -55.69789,4.20933 -58.02264,4.20933 -2.32474,0 -4.20932,-1.88458 -4.20932,-4.20933 0,-2.32474 1.88458,-4.20932 4.20932,-4.20932 2.32475,0 58.02264,4.20932 58.02264,4.20932 z" prop_scale="0.26458335" prop_units="false" scale_y_rel="false" spacing="0" tang_offset="0" vertical_pattern="false">
		</inkscape:path-effect>
	
		<inkscape:path-effect  copytype="single_stretched" effect="skeletal" fuse_tolerance="0" id="path-effect310" is_visible="true" normal_offset="0" pattern="m 370.7757,184.79453 c 0,0 -55.69789,4.20933 -58.02264,4.20933 -2.32474,0 -4.20932,-1.88458 -4.20932,-4.20933 0,-2.32474 1.88458,-4.20932 4.20932,-4.20932 2.32475,0 58.02264,4.20932 58.02264,4.20932 z" prop_scale="0.26458335" prop_units="false" scale_y_rel="false" spacing="0" tang_offset="0" vertical_pattern="false">
		</inkscape:path-effect>
	
		<inkscape:path-effect  copytype="single_stretched" effect="skeletal" fuse_tolerance="0" id="path-effect300" is_visible="true" normal_offset="0" pattern="m 370.7757,184.79453 c 0,0 -55.69789,4.20933 -58.02264,4.20933 -2.32474,0 -4.20932,-1.88458 -4.20932,-4.20933 0,-2.32474 1.88458,-4.20932 4.20932,-4.20932 2.32475,0 58.02264,4.20932 58.02264,4.20932 z" prop_scale="0.26458335" prop_units="false" scale_y_rel="false" spacing="0" tang_offset="0" vertical_pattern="false">
		</inkscape:path-effect>
	
		<inkscape:path-effect  copytype="single_stretched" effect="skeletal" fuse_tolerance="0" id="path-effect290" is_visible="true" normal_offset="0" pattern="m 370.7757,184.79453 c 0,0 -55.69789,4.20933 -58.02264,4.20933 -2.32474,0 -4.20932,-1.88458 -4.20932,-4.20933 0,-2.32474 1.88458,-4.20932 4.20932,-4.20932 2.32475,0 58.02264,4.20932 58.02264,4.20932 z" prop_scale="0.26458335" prop_units="false" scale_y_rel="false" spacing="0" tang_offset="0" vertical_pattern="false">
		</inkscape:path-effect>
	
		<inkscape:path-effect  copytype="single_stretched" effect="skeletal" fuse_tolerance="0" id="path-effect280" is_visible="true" normal_offset="0" pattern="m 370.7757,184.79453 c 0,0 -55.69789,4.20933 -58.02264,4.20933 -2.32474,0 -4.20932,-1.88458 -4.20932,-4.20933 0,-2.32474 1.88458,-4.20932 4.20932,-4.20932 2.32475,0 58.02264,4.20932 58.02264,4.20932 z" prop_scale="0.26458335" prop_units="false" scale_y_rel="false" spacing="0" tang_offset="0" vertical_pattern="false">
		</inkscape:path-effect>
	
		<inkscape:path-effect  copytype="single_stretched" effect="skeletal" fuse_tolerance="0" id="path-effect270" is_visible="true" normal_offset="0" pattern="m 370.7757,184.79453 c 0,0 -55.69789,4.20933 -58.02264,4.20933 -2.32474,0 -4.20932,-1.88458 -4.20932,-4.20933 0,-2.32474 1.88458,-4.20932 4.20932,-4.20932 2.32475,0 58.02264,4.20932 58.02264,4.20932 z" prop_scale="0.26458335" prop_units="false" scale_y_rel="false" spacing="0" tang_offset="0" vertical_pattern="false">
		</inkscape:path-effect>
	
		<inkscape:path-effect  copytype="single_stretched" effect="skeletal" fuse_tolerance="0" id="path-effect260" is_visible="true" normal_offset="0" pattern="m 370.7757,184.79453 c 0,0 -55.69789,4.20933 -58.02264,4.20933 -2.32474,0 -4.20932,-1.88458 -4.20932,-4.20933 0,-2.32474 1.88458,-4.20932 4.20932,-4.20932 2.32475,0 58.02264,4.20932 58.02264,4.20932 z" prop_scale="0.26458335" prop_units="false" scale_y_rel="false" spacing="0" tang_offset="0" vertical_pattern="false">
		</inkscape:path-effect>
	
		<inkscape:path-effect  copytype="single_stretched" effect="skeletal" fuse_tolerance="0" id="path-effect241" is_visible="true" normal_offset="0" pattern="m 416.63487,181.69266 c 0,0 -96.74206,7.3112 -100.77993,7.3112 -4.03786,0 -7.3112,-3.27334 -7.3112,-7.3112 0,-4.03787 3.27334,-7.31121 7.3112,-7.31121 4.03787,0 100.77993,7.31121 100.77993,7.31121 z" prop_scale="0.26458335" prop_units="false" scale_y_rel="false" spacing="0" tang_offset="0" vertical_pattern="false">
		</inkscape:path-effect>
	
		<inkscape:path-effect  copytype="single_stretched" effect="skeletal" fuse_tolerance="0" id="path-effect231" is_visible="true" normal_offset="0" pattern="m 416.63487,181.69266 c 0,0 -96.74206,7.3112 -100.77993,7.3112 -4.03786,0 -7.3112,-3.27334 -7.3112,-7.3112 0,-4.03787 3.27334,-7.31121 7.3112,-7.31121 4.03787,0 100.77993,7.31121 100.77993,7.31121 z" prop_scale="0.26458335" prop_units="false" scale_y_rel="false" spacing="0" tang_offset="0" vertical_pattern="false">
		</inkscape:path-effect>
	
		<inkscape:path-effect  copytype="single_stretched" effect="skeletal" fuse_tolerance="0" id="path-effect221" is_visible="true" normal_offset="0" pattern="m 416.63487,181.69266 c 0,0 -96.74206,7.3112 -100.77993,7.3112 -4.03786,0 -7.3112,-3.27334 -7.3112,-7.3112 0,-4.03787 3.27334,-7.31121 7.3112,-7.31121 4.03787,0 100.77993,7.31121 100.77993,7.31121 z" prop_scale="0.26458335" prop_units="false" scale_y_rel="false" spacing="0" tang_offset="0" vertical_pattern="false">
		</inkscape:path-effect>
	
		<inkscape:path-effect  copytype="single_stretched" effect="skeletal" fuse_tolerance="0" id="path-effect211" is_visible="true" normal_offset="0" pattern="m 416.63487,181.69266 c 0,0 -96.74206,7.3112 -100.77993,7.3112 -4.03786,0 -7.3112,-3.27334 -7.3112,-7.3112 0,-4.03787 3.27334,-7.31121 7.3112,-7.31121 4.03787,0 100.77993,7.31121 100.77993,7.31121 z" prop_scale="0.26458335" prop_units="false" scale_y_rel="false" spacing="0" tang_offset="0" vertical_pattern="false">
		</inkscape:path-effect>
	
		<inkscape:path-effect  copytype="single_stretched" effect="skeletal" fuse_tolerance="0" id="path-effect201" is_visible="true" normal_offset="0" pattern="m 416.63487,181.69266 c 0,0 -96.74206,7.3112 -100.77993,7.3112 -4.03786,0 -7.3112,-3.27334 -7.3112,-7.3112 0,-4.03787 3.27334,-7.31121 7.3112,-7.31121 4.03787,0 100.77993,7.31121 100.77993,7.31121 z" prop_scale="0.26458335" prop_units="false" scale_y_rel="false" spacing="0" tang_offset="0" vertical_pattern="false">
		</inkscape:path-effect>
	
		<inkscape:path-effect  copytype="single_stretched" effect="skeletal" fuse_tolerance="0" id="path-effect191" is_visible="true" normal_offset="0" pattern="m 416.63487,181.69266 c 0,0 -96.74206,7.3112 -100.77993,7.3112 -4.03786,0 -7.3112,-3.27334 -7.3112,-7.3112 0,-4.03787 3.27334,-7.31121 7.3112,-7.31121 4.03787,0 100.77993,7.31121 100.77993,7.31121 z" prop_scale="0.26458335" prop_units="false" scale_y_rel="false" spacing="0" tang_offset="0" vertical_pattern="false">
		</inkscape:path-effect>
	
		<inkscape:path-effect  copytype="single_stretched" effect="skeletal" fuse_tolerance="0" id="path-effect181" is_visible="true" normal_offset="0" pattern="m 416.63487,181.69266 c 0,0 -96.74206,7.3112 -100.77993,7.3112 -4.03786,0 -7.3112,-3.27334 -7.3112,-7.3112 0,-4.03787 3.27334,-7.31121 7.3112,-7.31121 4.03787,0 100.77993,7.31121 100.77993,7.31121 z" prop_scale="0.26458335" prop_units="false" scale_y_rel="false" spacing="0" tang_offset="0" vertical_pattern="false">
		</inkscape:path-effect>
	
		<inkscape:path-effect  copytype="single_stretched" effect="skeletal" fuse_tolerance="0" id="path-effect171" is_visible="true" normal_offset="0" pattern="m 416.63487,181.69266 c 0,0 -96.74206,7.3112 -100.77993,7.3112 -4.03786,0 -7.3112,-3.27334 -7.3112,-7.3112 0,-4.03787 3.27334,-7.31121 7.3112,-7.31121 4.03787,0 100.77993,7.31121 100.77993,7.31121 z" prop_scale="0.26458335" prop_units="false" scale_y_rel="false" spacing="0" tang_offset="0" vertical_pattern="false">
		</inkscape:path-effect>
	
		<inkscape:path-effect  copytype="single_stretched" effect="skeletal" fuse_tolerance="0" id="path-effect161" is_visible="true" normal_offset="0" pattern="m 416.63487,181.69266 c 0,0 -96.74206,7.3112 -100.77993,7.3112 -4.03786,0 -7.3112,-3.27334 -7.3112,-7.3112 0,-4.03787 3.27334,-7.31121 7.3112,-7.31121 4.03787,0 100.77993,7.31121 100.77993,7.31121 z" prop_scale="0.26458335" prop_units="false" scale_y_rel="false" spacing="0" tang_offset="0" vertical_pattern="false">
		</inkscape:path-effect>
	
		<inkscape:path-effect  copytype="single_stretched" effect="skeletal" fuse_tolerance="0" id="path-effect151" is_visible="true" normal_offset="0" pattern="m 416.63487,181.69266 c 0,0 -96.74206,7.3112 -100.77993,7.3112 -4.03786,0 -7.3112,-3.27334 -7.3112,-7.3112 0,-4.03787 3.27334,-7.31121 7.3112,-7.31121 4.03787,0 100.77993,7.31121 100.77993,7.31121 z" prop_scale="0.26458335" prop_units="false" scale_y_rel="false" spacing="0" tang_offset="0" vertical_pattern="false">
		</inkscape:path-effect>
	
		<inkscape:path-effect  copytype="single_stretched" effect="skeletal" fuse_tolerance="0" id="path-effect141" is_visible="true" normal_offset="0" pattern="m 416.63487,181.69266 c 0,0 -96.74206,7.3112 -100.77993,7.3112 -4.03786,0 -7.3112,-3.27334 -7.3112,-7.3112 0,-4.03787 3.27334,-7.31121 7.3112,-7.31121 4.03787,0 100.77993,7.31121 100.77993,7.31121 z" prop_scale="0.26458335" prop_units="false" scale_y_rel="false" spacing="0" tang_offset="0" vertical_pattern="false">
		</inkscape:path-effect>
	
		<inkscape:path-effect  copytype="single_stretched" effect="skeletal" fuse_tolerance="0" id="path-effect131" is_visible="true" normal_offset="0" pattern="m 416.63487,181.69266 c 0,0 -96.74206,7.3112 -100.77993,7.3112 -4.03786,0 -7.3112,-3.27334 -7.3112,-7.3112 0,-4.03787 3.27334,-7.31121 7.3112,-7.31121 4.03787,0 100.77993,7.31121 100.77993,7.31121 z" prop_scale="0.26458335" prop_units="false" scale_y_rel="false" spacing="0" tang_offset="0" vertical_pattern="false">
		</inkscape:path-effect>
	
		<inkscape:path-effect  copytype="single_stretched" effect="skeletal" fuse_tolerance="0" id="path-effect121" is_visible="true" normal_offset="0" pattern="m 416.63487,181.69266 c 0,0 -96.74206,7.3112 -100.77993,7.3112 -4.03786,0 -7.3112,-3.27334 -7.3112,-7.3112 0,-4.03787 3.27334,-7.31121 7.3112,-7.31121 4.03787,0 100.77993,7.31121 100.77993,7.31121 z" prop_scale="0.26458335" prop_units="false" scale_y_rel="false" spacing="0" tang_offset="0" vertical_pattern="false">
		</inkscape:path-effect>
	
		<inkscape:path-effect  copytype="single_stretched" effect="skeletal" fuse_tolerance="0" id="path-effect111" is_visible="true" normal_offset="0" pattern="m 416.63487,181.69266 c 0,0 -96.74206,7.3112 -100.77993,7.3112 -4.03786,0 -7.3112,-3.27334 -7.3112,-7.3112 0,-4.03787 3.27334,-7.31121 7.3112,-7.31121 4.03787,0 100.77993,7.31121 100.77993,7.31121 z" prop_scale="0.26458335" prop_units="false" scale_y_rel="false" spacing="0" tang_offset="0" vertical_pattern="false">
		</inkscape:path-effect>
	
		<inkscape:path-effect  copytype="single_stretched" effect="skeletal" fuse_tolerance="0" id="path-effect92" is_visible="true" normal_offset="0" pattern="m 676.05351,164.14578 c 0,0 -328.92295,24.85809 -342.65169,24.85809 -13.72874,0 -24.85808,-11.12935 -24.85808,-24.85809 0,-13.72874 11.12934,-24.85809 24.85808,-24.85809 13.72874,0 342.65169,24.85809 342.65169,24.85809 z" prop_scale="0.26458335" prop_units="false" scale_y_rel="false" spacing="0" tang_offset="0" vertical_pattern="false">
		</inkscape:path-effect>
	
		<inkscape:path-effect  copytype="single_stretched" effect="skeletal" fuse_tolerance="0" id="path-effect82" is_visible="true" normal_offset="0" pattern="m 676.05351,164.14578 c 0,0 -328.92295,24.85809 -342.65169,24.85809 -13.72874,0 -24.85808,-11.12935 -24.85808,-24.85809 0,-13.72874 11.12934,-24.85809 24.85808,-24.85809 13.72874,0 342.65169,24.85809 342.65169,24.85809 z" prop_scale="0.26458335" prop_units="false" scale_y_rel="false" spacing="0" tang_offset="0" vertical_pattern="false">
		</inkscape:path-effect>
	
		<inkscape:path-effect  copytype="single_stretched" effect="skeletal" fuse_tolerance="0" id="path-effect72" is_visible="true" normal_offset="0" pattern="m 676.05351,164.14578 c 0,0 -328.92295,24.85809 -342.65169,24.85809 -13.72874,0 -24.85808,-11.12935 -24.85808,-24.85809 0,-13.72874 11.12934,-24.85809 24.85808,-24.85809 13.72874,0 342.65169,24.85809 342.65169,24.85809 z" prop_scale="0.26458335" prop_units="false" scale_y_rel="false" spacing="0" tang_offset="0" vertical_pattern="false">
		</inkscape:path-effect>
	
		<inkscape:path-effect  copytype="single_stretched" effect="skeletal" fuse_tolerance="0" id="path-effect62" is_visible="true" normal_offset="0" pattern="m 676.05351,164.14578 c 0,0 -328.92295,24.85809 -342.65169,24.85809 -13.72874,0 -24.85808,-11.12935 -24.85808,-24.85809 0,-13.72874 11.12934,-24.85809 24.85808,-24.85809 13.72874,0 342.65169,24.85809 342.65169,24.85809 z" prop_scale="0.26458335" prop_units="false" scale_y_rel="false" spacing="0" tang_offset="0" vertical_pattern="false">
		</inkscape:path-effect>
	
		<inkscape:path-effect  copytype="single_stretched" effect="skeletal" fuse_tolerance="0" id="path-effect52" is_visible="true" normal_offset="0" pattern="m 676.05351,164.14578 c 0,0 -328.92295,24.85809 -342.65169,24.85809 -13.72874,0 -24.85808,-11.12935 -24.85808,-24.85809 0,-13.72874 11.12934,-24.85809 24.85808,-24.85809 13.72874,0 342.65169,24.85809 342.65169,24.85809 z" prop_scale="0.26458335" prop_units="false" scale_y_rel="false" spacing="0" tang_offset="0" vertical_pattern="false">
		</inkscape:path-effect>
	
		<inkscape:path-effect  copytype="single_stretched" effect="skeletal" fuse_tolerance="0" id="path-effect42" is_visible="true" normal_offset="0" pattern="m 676.05351,164.14578 c 0,0 -328.92295,24.85809 -342.65169,24.85809 -13.72874,0 -24.85808,-11.12935 -24.85808,-24.85809 0,-13.72874 11.12934,-24.85809 24.85808,-24.85809 13.72874,0 342.65169,24.85809 342.65169,24.85809 z" prop_scale="0.26458335" prop_units="false" scale_y_rel="false" spacing="0" tang_offset="0" vertical_pattern="false">
		</inkscape:path-effect>
	
		<inkscape:path-effect  copytype="single_stretched" effect="skeletal" fuse_tolerance="0" id="path-effect32" is_visible="true" normal_offset="0" pattern="m 676.05351,164.14578 c 0,0 -328.92295,24.85809 -342.65169,24.85809 -13.72874,0 -24.85808,-11.12935 -24.85808,-24.85809 0,-13.72874 11.12934,-24.85809 24.85808,-24.85809 13.72874,0 342.65169,24.85809 342.65169,24.85809 z" prop_scale="0.26458335" prop_units="false" scale_y_rel="false" spacing="0" tang_offset="0" vertical_pattern="false">
		</inkscape:path-effect>
</defs>
<sodipodi:namedview  bordercolor="#666666" borderopacity="1.0" fit-margin-bottom="0" fit-margin-left="0" fit-margin-right="0" fit-margin-top="0" id="base" inkscape:current-layer="layer1" inkscape:cx="517.1429" inkscape:cy="517.1429" inkscape:document-units="mm" inkscape:pageopacity="0.0" inkscape:pageshadow="2" inkscape:snap-global="false" inkscape:window-height="961" inkscape:window-maximized="1" inkscape:window-width="1280" inkscape:window-x="-8" inkscape:window-y="-8" inkscape:zoom="0.76767949" pagecolor="#ffffff" showgrid="false">
	</sodipodi:namedview>
<g id="layer1" transform="translate(21.922617,-7.4702382)" inkscape:groupmode="layer" inkscape:label="Layer 1">
	<path id="path24" inkscape:connector-curvature="0" class="st0" d="M218.7,260.3c-7.4,0.1-30.6,4.6-43.4-16.7
		c-0.9-0.6-12.8-20.6-13.7-20.9c-0.6-0.6-1.2-1.1-1.8-1.7c-1-1-2.4-2.2-4.4-2.9c-1.8-0.5-30.1-16-38.8-26.1c-2-2.3-3.8-5.1-5.4-7.4
		c-2.8-4-5-7.2-7.4-10.4c-3.1-4.1-3.6-3.7-0.7,0.5c2.3,3.3,4.3,6.6,7,10.7c1.5,2.4,3.2,5.3,5.2,7.8c7.6,9.5,17,16.7,28.8,24.4
		c-0.7,0.1-1.3,0.2-1.9,0.2c-4.2,0.5-8.3,1.3-12.4,2.4c-1.1,0.4-2.6,0-4.2-0.4c-2.2-0.5-4.3-1.3-6.4-2.2c-4-1.6-8-3.6-12.1-4.9
		c-2.9-0.7-5.5,0.7-7.4,1.8c-2.4,1.2-4.2,2.6-6.3,3c-2.6,0.6-5.5,0-8-0.6c-3.6-0.9-7.1-2.4-9.9-3.7c-3.8-1.8-4.1-1.2-0.3,0.7
		c2.8,1.5,6.2,3.1,9.9,4.2c2.6,0.8,5.6,1.5,8.7,1c2.6-0.5,4.6-1.9,6.9-2.9c2.1-0.9,4.3-2.2,5.8-1.4c3.9,1.4,7.6,3.5,11.8,5.4
		c2.1,1,4.3,1.9,6.7,2.6c1.6,0.5,3.6,1,5.8,0.6c3.9-0.9,7.9-1.5,12-1.8c2.6-0.2,5.1-0.4,7.5-0.3c1,0.7,2,1.3,3.1,2
		c1.7,1,16.8,28.9,18.8,30.2c0.1,0.1,0.2,0.2,0.3,0.4c1.5,1.4,11.9,17.2,52,16.7c3.5,0.1,10.8,5,11.7,6.6
		c10,17.8,42.7,56.8,61.9,107.6c0.1,0.6-26.5,7.3-80-31.2c-15.1-15.2-11.5-24.1-11.4-25.2c0.2-0.6,6.6-5.8,7.4-7.2
		c0.8-1.6,0.7-3.3,0-4.7c-1.7-2.7-4.2-3.9-6.1-4.7c-1.9-1.1-3.7-1.7-3.9-2.9c-0.7-1.8-1.6-3.3-2.4-4.7c-1.3-2.3-2.6-4.4-4-6.4
		c-1.5-2.2-2.9-4.2-4.6-6c-1.1-1.3-2.4-2.8-4.3-3.4c-1.9-0.5-3.6-1-5.2-1.5c-1-0.3-2-0.7-2.9-1.1c-0.7-0.3-4.5-4.6-5.7-5.7
		c-0.8-0.7-1.3-0.7-0.4,0.4c1.1,1.2,5,6.1,5.6,6.4c0.9,0.5,10.1,4.9,11.2,6.3c1.4,1.8,8.7,15.5,9.1,17c1.1,2.8,3.4,4.4,5.4,5.4
		c1.9,1.2,3.7,2,4,3.2c0.1,0.1,0,0.4-0.1,0.5c-0.2,0.4-0.8,0.7-1.5,1.3c-1.3,0.8-3.4,1.6-5.6,3.5c-1.4,1.7-1.7,3.2-1.7,4
		c-0.2,1.6-0.3,3.1-0.3,4.5c0,2.4,0,5.2,0.9,8.1c0.8,2.6,2.2,5,3.8,7c-0.7-0.1-1.4-0.1-1.9-0.1c-2.2,0-4.2,0.2-6.1,0.4
		c-3.9,0.2-6.9,1.5-8.5,0.5c-10.4-4.8-18.7-14.1-28.3-21c-1-0.5-1.5-2.2-2.3-3.9c-0.9-2.5-1.6-5.1-2.2-7.7c-1-4.8-1.7-9.7-2.5-14.4
		c-0.5-2.4-1.4-4.6-2.2-6.5c-1.3-3.1-2.6-6-4-8.9s-2.8-5.7-4.3-8.4c-0.9-1.7-1.8-3.5-3.4-5c-2.5-2.4-5.2-4.5-7.6-6.3
		c-1.5-1.1-3-2.2-4.6-3.1c-1.2-0.7-2.3-1.4-3.7-1.8c-6.1-1.4-11.5-1.1-15.4-2.9c-2.3-1.1-2-0.5-0.2,0.5c4,2.1,9.6,2,15.4,3.6
		c1.1,0.3,2.1,1,3.3,1.7c1.5,1,2.9,2.1,4.3,3.2c2.4,1.9,4.9,4.1,7.2,6.5c1.2,1.2,1.9,2.9,2.8,4.7c1.4,2.7,2.6,5.5,3.9,8.4
		c1.2,2.8,2.5,5.8,3.6,8.8c0.7,2,1.5,4,1.8,6c0.7,4.7,1.1,9.6,2,14.6c0.5,2.7,1.1,5.6,2,8.4c0.5,1.9,1.4,4.2,3.6,6
		c6.9,5.4,13.3,12.4,21.1,18.1c-2.4-0.1-5-0.1-8,0c-8.8,0.1-19,1.1-29.7,1.3c-2.9,0.1-5.9,0.1-8.7,0c-1.7-0.1-3.4-0.1-4.9-0.4
		c-1.6-0.7-3.2-1.4-4.8-2.1c-2-1.5-3.7-3.5-5.4-5.7c-2.1-3.1-2.3-9.9-1.6-10.9c1.3-2.8,1.2-5.7,1.1-8.2c0-2.5,0-5.5-1.5-8.1
		c-4.5-7.4-11-12.5-15.4-18.2c-1.9-2.4-3.2-4.7-5.4-6.8c-1.3-1.2-1.8-3.1-2.1-4.9c-0.3-2.1-0.5-3.9-1.4-5.7c-1.6-3-2-2.5-0.7,0.3
		c0.8,1.6,0.8,3.4,1.1,5.5c0.2,1.9,0.7,4,2.2,5.6c1.8,1.9,3.2,4.4,4.9,6.9c4.3,6,10.6,11.4,14.4,18.5c1,1.7,0.8,4.2,0.8,6.8
		c-0.1,2.5-2.1,7-3,8.6c-1.4,4.7,0.7,9.3,3.1,12.6c-5.3-2.1-10.4-4-15.2-6c-10.3-4.4-18.3-9.1-24.7-15.1c-2.3-2.1-4.1-5-5.7-7.5
		c-2.2-3.5-4.2-7.3-5.8-10.1c-2.3-4.3-3.1-4-1.1,0.5c1.3,2.9,3.1,6.9,5.1,10.6c1.4,2.6,3.1,5.7,5.5,8.4c6.2,6.7,14.3,12.3,24.6,17.5
		c8.8,4.5,18.6,8.5,28.3,13.8c5.9,3.1,12.5,4.1,18.9,4.5c1.5,0.1,2.9,0.2,4.4,0.3c-6.6,2.4-14.6,1.5-22.4,3.2
		c-4.1,0.9-7.5,3.2-10.6,4.9c-1.3,0.9-4,0-6.8,1.3c-4.5,2.4-10.8,4-15.2,10.4c0.8-0.4,4.2-2.6,4.6-3c0.8-1,4-2.3,4.3-2.3
		c4.5-1.8,2.7-0.8,7.4-3c1.4-0.8,4,0.2,6.9-1c3.5-1.6,6.7-3.7,10-4.3c7.2-1.3,15.3-0.1,23.3-2.5c2-1,3.1-2.5,3.6-3.7
		c4.4,0.1,8.7,0,13.2-0.1c7.2-0.1,14.7-0.4,21.9,0c5.7,0.4,11.1,0.7,15.2,2.7c1.7,0.7,3.3,1.6,5,2.7c2.7,2,5.1,4,7,5.6
		c2.2,1.8,4,3.2,5.5,4.5c0.2,0.2,0.4,0.3,0.6,0.5c-2.6,1.3-4.9,2.8-6.9,4.4c-6.8,5.3-11,11.2-16.1,13.8c-3,1.8-7.2,2.6-11.6,3.7
		c-4.7,1-9.7,2.5-14.3,5.6c-6.1,4.4-8.6,9.9-12.2,11.6c-5.6,3.2-13.3,4.4-20,6c-8,1.8-15.2,5-20.4,10.4c-0.9,1.2-3,1.8-5,2.5
		c-1.7,0.4-10.8,4.4-13.6,4.2c-4.6-0.5-9.3-2-13-3.2c-5.4-1.8-6-0.5-0.7,1.7c3.6,1.5,8.3,3.4,13.2,4.2c3,0.7,19.7-4.3,22-6.4
		c4.6-4.3,11-6.4,18.4-7.6c6.5-1,14.7-1.7,22.2-5.1c6.4-3.2,9.9-8.9,13.7-11.1c2.9-1.9,6.8-2.5,11.3-3.3c4.3-0.6,9.3-1.3,14.6-3.6
		c7.9-3.8,13.3-9.9,18.6-13.5c2.7-1.8,5.5-3.2,8-3.6c2.8-0.6,6,0,9.2,1.1c4.3,1.6,8.5,3.6,12.7,5.8c2.4,1.8,4.9,2.7,4.9,2.7
		c-0.7,0.8-1.2,1.7-1.6,2.6c-1.2,2.7-1.5,5.4-1.6,7.8s0,4.7,0,6.8c0,0.8,0,1.5-0.1,2.1c-0.1,0.2-0.1,0.3-0.1,0.4
		c-1.6,1.7-4.6,2.6-7.4,4.6c-5.7,4-10.4,9.2-14.5,13.6c-1.8,1.9-2.9,4.2-3.9,6.2c-1.1,2.2-2,4.4-2.6,6.7c-0.2,1-5.5,7.5-8.6,8.9
		c-4.4,1.8-7.5,2.7-10.8,5c-1.7,1.2,6.7-2.1,11.3-3.7c3.2-1.1,10.1-9.4,10.2-9.4c0.8-2.1,1.7-4.1,2.8-6.2c1.1-1.9,2.1-3.9,3.6-5.3
		c4.4-4.2,9.3-9,14.6-12.4c2.3-1.4,5.6-2.3,8.6-4.9c0.9-1.1,1.2-2.1,1.2-2.7c0.2-1,0.2-1.9,0.2-2.7c0.1-2.3,0.1-4.5,0.3-6.5
		c0.3-2.2,0.6-4.3,1.5-5.9c0.4-0.8,1-1.5,1.7-2.1c4.2,2.4,8.5,4.9,13.1,7.4c7.4,3.4,35.6,10.6,35,10.9c-0.5-0.4,17.9,40.3,21.5,46.7
		c4.9,7.4,2.5,58.8-0.3,68.5c-1.2,7.6-7.2,40.9-9.8,52.3c-1.7,9.3-4.8,72-4.1,87.3c-3.6,14.2-20,46-21.6,49.1
		c-1.1,2-2.1,4.2-3.1,6.5c-2.5,6.8-3.4,12.8-3.5,17.8h98c-0.5-6.3-1.7-12.5-2.6-18.9c-0.1-0.6-0.2-1.2-0.3-1.9
		c-0.6-3.2-1.3-6.9-1.9-20.2c-0.3-8.3-0.3-17.8,0.2-30c0.7-15.5,2.1-35.1,5.4-55c2-13,2-48.4,0.6-57.9c-0.7-9.2,2.7-47.9,4-56.2
		c1-5.8,2.1-11.6,3.3-17.4c4.1-13.1,8.2-26.9,11.3-40.6c2.6-12.9,0.8-45,0.9-49.9c0.1-4.6,8.7-60.6,9.6-63.2
		c0.7-0.6,41.3,0.5,44.5,0.5c1.4,0.4,11.8-2.2,14.9-3.5c1.4-0.7,6.9-2.9,8.3-3.2c5,2.6,22.1,20,25.8,22.3c3.4,2.6,17.1,9,17.9,10
		c1.4,1.3,1.3,4.1,1.5,7.1c-0.1,3,0.3,6.9,3,9.9c4.3,4.2,22.8,20.1,24.7,22.2c3.7,4.1,8.3,6.4,11.6,9.6c5,4.7,7.4,3.9,1.8-2
		c-3.5-3.7-8.1-6.2-11.1-9.8c-1.6-1.9-19.8-19-23.9-23.2c-1.5-1.2-1.3-3.9-1.4-6.8c0.1-2.2,0.2-4.9-0.9-7.6c1,0.2,9.1,0.3,9.5,0.6
		c1.5,0.3,13.5,0.5,13.6,0.4c29.1,2.7,55.2,2.7,75,2c10-0.3,18.9,0.3,26.2-0.2c8.3-0.5,16.3-1.8,0-1.7c-7.2,0-15.9-1.2-26.2-1.5
		c-12.9-0.4-28.4-1.3-45.5-3.1c0.4-0.3,0.9-0.6,1.3-0.9c3.4-3.7,4.8-8.1,6.5-12c1.6-3.5,3.6-7,6.8-8c1.6-0.7,27.8-5.8,36.4-5.8
		c2.4,0.1,4.5,0.2,6.8,0.2c1.7,0,3.5,0,5.2-0.6c5-1.8,4.3-2.6-0.4-1.2c-1.4,0.5-3,0.3-4.7,0.3c-2.2-0.1-4.4-0.3-6.7-0.5
		c-2.1-0.2-4.3-0.4-6.6-0.4c-1.3-0.1-28.1,3.8-31.1,4.6c-4.6,1.6-7.6,5.7-9.4,9.7c-2,4.1-3.4,8-6,10.4c-1.2,1.7-4.5,0.8-7.7,0.5
		c-3.3-0.7-39.4-3.7-50.7-6.4c-2.6-0.5-5.3-2.7-8.5-5c-2.7-2.3-16.4-20.8-19-21.9c6.2-3.2,12.4-6.2,18.8-8.6
		c4.1-1.7,6.6-3.9,8.3-5.5c3.1-2.6,6-5.3,8.8-7.8c6.1-5.3,10.9-10.4,16.6-12.3c5.3-2.1,48.4-4.1,52-4.4c3.3-0.3,7.4-0.7,11.4-0.7
		c2.6,0.2,5.1-0.1,6.4,0.9c1.9,1,3.5,3.8,6.2,6.3c4.8,4.4,10.9,6.3,16.5,7.9c3.1,0.9,6.2,0.6,8.8,0.4c4.2-0.3,8.3-0.8,11.9-1.3
		c12.7-1.8,12.5-2.5-0.2-1.7c-3.6,0.2-7.7,0.5-11.8,0.5c-2.7,0-5.5,0-7.8-0.9c-5.4-2.1-10.9-4.2-14.4-8.1c-1.8-2-3.3-5.1-6.5-7.4
		c-3.2-2-6.6-2.2-9-2.3c-4.4-0.3-8.7-0.2-12.1-0.1c-0.7,0-1.9,0.1-2.9,0.1c3.8-1.8,7.4-3.6,10.9-5.6c7.5-4.1,14.4-8.4,20-14.3
		c2.3-2.5,14.7-21.7,15.2-25.2c0.8-4.6,0.9-8,2-11.8c2.2-7.5,5.3-13.8,7.2-19.4c4.7-13.3-7,11-9.8,18.6c-1.5,4.1-1.8,7.7-2.8,12
		c-0.9,3.3-14.2,21-15.7,22.2c-5.3,5-11.8,8.4-19.4,12c-1.5,0.7-3.1,1.4-4.6,2.1c0.7-0.9,1.5-2,2.1-3.2c0.9-2.8,0.3-4.9-0.3-5.8
		c-0.6-2.4-1.4-4.8-2-7.2c-0.7-2.6-1.3-5.1-1.6-7.6c-0.2-2.1-0.3-4,0.4-5.5c1.1-2.4,3.1-4.5,5-6.8c2-2.3,4.7-11.1,4.9-11.4
		c0.6-2.4,3.8-4.2,4.9-7.5c3.4-11.2,2-11.7-2-0.6c-0.8,2.3-4,3.8-5.4,7.4c-0.5,1.9-2.9,7.8-4.9,10c-2,2.1-4.3,4.3-5.9,7.3
		c-1.2,2.5-1.3,5.2-1.1,7.4c0.2,2.9,0.7,5.7,1.3,8.3c0.5,2.5,1.1,4.9,1.6,7.2c0.1,1.8-0.9,4.3-1.8,5.5c-1.4,1.6-2.8,3.1-4.2,4.5
		c-0.9,0.9-1.8,1.8-2.7,2.6c-2,0.7-4,1.3-6,1.9c-1.7,0.5-3.9,0.6-6.4,0.8c-0.9-0.1-1.7-0.2-2.6-0.2c-4.7-0.1-9.5,0.4-12.2,0.8
		c-0.7,0-1.4,0.1-2.2,0.1c1.9-1.8,3.7-3.5,5.5-5.4c3-3.7,7.6-11.8,9.2-15.7c1.3-4.2,1.1-8.6-0.2-12.6c-1.2-3.7-3.1-6.9-4.5-10
		c-1.4-3.3-2.4-6.7-2.2-9.9c0.3-4.9,2.9-9.5,5.7-13.6c5.5-7.7,14.1-15.4,19.7-21.3c4.3-4.5,6.6-10.5,8.4-15.1c2.5-6.2,1.6-6.7-1-0.6
		c-2,4.6-4.5,10.4-8.6,14.3c-5.8,5.6-14.7,13-20.8,20.9c-3.2,4.1-6.2,9.2-6.9,15c-0.4,4.1,0.5,8.1,2.1,11.8c1.4,3.4,3.1,6.5,4,9.7
		s0.9,6.7-0.2,9.8c-0.2,1.5-7.3,12.9-8.5,13.4c-3.2,3.1-6.7,6.1-10.2,9.1c-0.5,0.4-1,0.8-1.5,1.3c-1.4,0.3-2.9,0.6-4.3,1
		c-3.9,1.3-26.1,17.9-29.8,19c-0.1-0.3,5.2-22.3,5.5-22.5c0.7-2.5,2.6-5.3,3.8-9c1.5-5,1.9-10,2-14.8c0.1-4.9-0.1-9.7-1-14.5
		c0.4-0.2,0.8-0.4,1.1-0.6c1.5-0.9,2.8-1.8,4.1-2.7c3.4-2.4,6.7-5,9.9-7.6s6.3-5.3,9.3-8c1.1-1,2.2-2.1,3.3-3.2
		c0.6-0.6,1.4-1.4,2.1-2.5c2.6-4.5,5.2-8.6,7.8-13.2c3.2-5.7,3.2-11.7,6-15.5c2-2.8,4.5-5.2,6.8-7.9c2.4-2.7,5-5.3,5.9-9.1
		c1.7-7.7-0.1-7.6-2.1-0.5c-0.7,2.9-3.3,5-5.8,7.8c-2.2,2.3-5.1,4.9-7.4,7.7c-3.7,4.8-4.2,11.1-6.9,15.3c-2.7,4.3-5.7,8.5-8.4,12.8
		c-0.2,0.4-0.7,0.8-1.4,1.5c-0.8,0.7-1.5,1.4-2.4,2.1c0.2-1,0.4-2,0.6-3c0.5-2.8,1-5.5,1.5-8.3c0.4-1.9,0.6-3.7,1.1-5.2
		c0.8-2.2,1.2-4.4,1.6-6.4c0.2-1.1,0.4-2.1,0.7-3.1c0.2-0.7,0.2-1.2,0.3-1.3c2.5-5,5.9-10.9,4.4-17.3c-0.9-3.2-2.8-5.6-4-7.9
		c-1.1-2.5-2.1-5.2-1-7.1c1.4-2.9,2.9-5.8,3.9-8.9c1.1-3.3,1.6-7,0.5-10.4c-1.7-4.8-3.6-9.3-5-13.7c-0.8-2.7-1.5-5.3-1.8-7.9
		c-0.2-2.2-0.3-4.2,0.5-5.9c1.3-2.8,4.2-5.1,6.2-6.9c2.7-2.3,2.3-2.8-0.4-0.5c-2.1,1.7-5.1,3.9-6.7,6.9c-1,2-1,4.2-0.8,6.5
		c0.2,2.7,0.8,5.4,1.6,8.2c1.2,4.5,3,9.1,4.5,14c0.9,2.8,0.3,5.9-0.8,8.9c-1,2.9-2.5,5.5-4.1,8.5c-1.5,3.3-0.7,6.9,0.7,9.7
		c1.3,2.8,3,5.1,3.4,7.4c1.3,4.6-2.2,9.5-4.7,14.8c-0.4,0.9-0.6,1.7-0.7,2.1c-0.3,1.1-0.5,2.1-0.8,3.1c-0.5,2.1-0.9,4.1-1.7,5.7
		c-0.8,2.1-1.2,4.1-1.6,5.9c-0.6,2.8-1.1,5.5-1.7,8.2c-0.6,2.6-1.2,5.1-2,7.5c-0.5,0.9-13.8,8.6-15.7,10.1c-0.5,0.4-1,0.8-1.5,1.2
		c-0.5-3.3-1-6.5-1.3-9.7c-0.7-6.6-1-12.6,0.3-18.3c1.6-7.1,3.4-13.1,5.9-18.6c0.7-1.5,2.2-2.8,3.5-4.1c1.6-1.5,0.8-2.4-0.8-1
		c-1.3,1.1-3,2.4-4,4.3c-2.9,5.5-5.1,11.5-7,18.7c-1.7,6.1-1.7,12.4-1.3,19.2c0.2,4,0.6,8,1.1,12c-0.3,0.2-6.5,37.1-6.9,37.2
		c-0.1,0.3-12,52.6-51.1,53.8c-27.5-4.3-41.6,0.3-44.1,1.2c-0.1,0,23.6-27.8,23.6-27.9c9.6-19.3,16-35.1,30.2-43.7
		c8.1-5.7,13.8-20.9,16.9-25.9c2.3-3.5,4.7-7.3,5.8-11.9c1.2-5.8,4.7-11.6,5.9-18.1c0.9-6-1.2-10.8-0.5-14.7
		c1.1-7.1,5.7-14.1,8.8-19.2c4.5-7.3,2.8-7.6-1.9-1.2c-3.5,4.8-8.7,11.7-10.6,19.7c-1.1,5.2,0.6,10.5-0.5,14.5
		c-1.2,5.3-5,10.5-7.1,17.6c-0.7,2.5-2.3,4.8-4.1,7.4c0-0.1-0.1-0.3-0.1-0.4c-1.7-3.1-4.1-5-6.2-6.8c-1.1-1-2.1-1.9-3.1-2.8
		c-0.7-0.8-1.3-1.2-1.3-1.5c-1.7-4-3.9-7.5-5.5-11.1c-1.5-3.8-3-7.7-1.9-11c1.9-6.3,8.1-11.9,9.3-19.3c1.4-9.7,1.9-18.3,1.7-26
		c-0.1-5.3-1-5-1.2,0c-0.2,7.7-1.1,16.1-2.9,25.6c-1.1,6.2-7.4,11-10.2,18.6c-1.5,4.7-0.3,9.6,1.4,13.6c1.6,4.1,3.6,7.7,4.9,11.3
		c0.7,1.5,1.6,2.5,2.2,3.1c1,1.1,2.1,2.2,3.1,3.1c1.9,2,3.6,3.4,4.5,5l0,0c-0.1,0.4-0.2,1-0.3,1.5c-0.4,1.6-0.9,3.2-1.4,4.7
		c-0.3,0.8-0.5,1.6-0.8,2.3c-1.3,1.6-2.7,3.3-4.2,5c-0.3,0.2-0.6,0.4-0.9,0.7c-0.7,0.9-1.1,1.5-1.3,1.9c-1.9,2.2-3.8,4.5-5.8,6.8
		c0.5-2.8,0.3-5.7-0.7-8.6c-1.2-3.2-3-5.8-5.1-8c-1.9-2.1-3.9-3.8-5.6-5.5c-1.4-1.5-2.6-2.6-2.9-3.7c-1.2-3.5-2.7-6.8-4.5-10
		c0.1-0.2,0.3-0.7,0.4-1.5c0.6-1.7,1.6-3.4,2.6-5.3c2-3.4,4.8-7.4,5.6-12.5c1.3-13-5.1-26.2-7.4-36.4c-1.2-5.1-0.7-10.3,0.7-15
		c1.4-4.6,3.8-9.4,5.7-13.4c2.2-4.9,0.2-10.3-1.5-13.9c-2.2-4.7-3.4-5-1.1,0.5c1.4,3.6,3.1,8.8,1,12.5c-2.1,3.9-4.8,8.6-6.5,13.4
		c-1.8,5-2.6,10.7-1.6,16.5c1.1,6.3,3.5,13.4,4.9,20.4c-0.7-1.4-1.3-2.8-1.7-4.1c-1.4-4.7-5.2-7.7-8.6-9.9c-3.5-2.3-6.9-3.9-9.5-6.3
		c0-0.1-3.4-5.6-3.5-7c-1.2-5.7-0.8-11.6-2-17.1c-1-4.4-3.9-7.9-6.8-10.6c-3.2-3-3.9-2.2-0.9,0.9c2.7,2.7,5.3,6.1,6,10
		c1,5.2,0.3,11.1,1.4,17.2c0.6,2.5,3,7,3.7,8.1c3,3.1,6.6,4.9,9.9,7.2c3.2,2.4,6.5,5,7.1,8.4c0.7,2.8,2,5,2.8,7.2
		c0.5,2.3,1,8.9-0.5,11.7c-0.7,1.5-5.1,7.2-5.3,8.3c-0.5,2-0.9,3.9-1.3,5.9c-0.4,1.9-0.7,3.9-0.9,5.9c-0.1,0.7-0.2,1.5-0.2,2.3
		c-0.1,0.3,0,1.1,0.4,2.2c1.2,2.5,2.6,4.8,3.8,6.9c0.8,1.4,1.5,2.7,2.3,4c0.3,0.5,0.5,0.9,0.8,1.4c0,0,0.2,0.4,0.7,1
		c3.2,3.5,9.8,16.2,9.6,16.6c-0.7,2.1-0.9,3.9-1.2,5.1c-0.2,0.6-7.2,9.3-8,10.1c0,0-9.1,15.8-10.6,17.2c-0.1,0.1-0.1,0.1-0.1,0.2
		c-0.1,0.1-0.2,0.3-0.3,0.4c-0.2,0.4-8.8,16-11.5,19.6c-3.4-10.2-10.5-18.2-18.3-25.3c-3.2-3.1-6.7-6.1-9.9-9.1
		c0-0.6,0.1-1.1,0.2-1.6c0.5-2.3,1-4.5,1.8-6.3c0.5-1,1-1.8,1.8-2.3c2.8-1.9,6.6-2.6,10.1-4.4c1.6-1,2.5-2.5,3-3.8
		c0.7-1.8,1.2-3.6,1.6-5.3c0.9-3.5,0.8-6.7,2.8-8.7c0.6-0.7,1.7-1,2.9-1.4c1.2-0.4,2.6-1.1,3.4-2.3c1.1-1.9-0.1-2-1-0.7
		c-0.5,0.8-1.6,1.2-2.8,1.6c-1,0.3-2.4,0.6-3.5,1.6c-2.5,2.5-2.9,6-3.7,9.3c-0.5,1.7-1,3.4-1.7,4.9c-0.6,1.1-1.2,2.2-2,2.5
		c-3.1,1.4-6.9,2-10.6,4c-1.4,0.9-2.5,2.1-3.2,3.5c-1,2-1.7,4.2-2.2,6.2c-17.4-20.2-10.4-39.2-10.2-39.2c3.3-0.8,6-2.6,8.4-4.2
		c3.6-2.4,6.8-5,9.7-7.6c3.2-2.8,6-5.7,8.5-8.7c2-2.4,3.8-4.8,4.5-7.7c1.3-5.5,0.6-6.7-1.2-0.3c-0.7,2.5-2.5,4.6-4.5,6.9
		c-2.5,2.8-5.4,5.4-8.6,8.1c-3,2.4-6.2,4.8-9.7,6.9c-2.5,1.5-5,3-7.6,3.5c-0.5,0.1-1,0.2-1.5,0.3c-0.2-0.5-0.4-1.1-0.5-1.6
		c-0.7-3.5-0.4-7.4-0.1-11.3c0.4-4,0.7-7.7,1.9-11c0.8-2.3,2.3-4.6,3.5-7.2c1.3-2.9,1.7-6.1,1.2-9.2c-2.2-11.5-7.6-20.8-9.6-29.9
		c-1.2-5.1-0.4-10.9,0.1-15.5c0.8-6.5-0.3-6.7-1.4-0.2c-0.7,4.6-1.7,10.4-0.7,16.1c1.7,9.5,6.7,19.3,8.2,30.1
		c0.3,2.3-0.1,4.8-1.2,7.1c-1.1,2.2-2.7,4.5-3.9,7.3c-1.6,3.9-2.3,8.1-2.7,12.1c-0.5,3.9-1,8.2-0.3,12.6c0.1,0.5,0.2,24.2,0.3,24.7
		c0,0,3.5,15.7,37.2,53.7c-49.2,93.3-7.5,110.7-53,169.2c-28.6-85.2-64.3-126.2-66.2-158.7c-1,0.5,13-36.8,28.3-62.7
		c-0.2,0.1,16.4-55.2,16.2-59.2c1.6-6.1,0.3-11.7-0.8-15.8c-0.9-5.5-2.6-10-0.8-13.1c3.4-7.6,11.1-14.3,14-23.4
		c9-30.2-2.2-57.4-8.6-69.2c-1.3-2.3-2.5-1.7-1.2,1.3c5.6,12.2,14.7,39.3,4.4,67c-1.5,4.3-4.8,8-8.4,12.3c0.3-3.2,0-6.4-0.9-9.5
		c-1.7-5.3-5.6-8.7-7.3-12.7c-0.4-0.8-4.7-7.5-6.2-8.7c-1.5-1.3-2.9-2.6-3.3-4.3c-1.5-5.2-0.8-11.8-1-16.9c-0.1-5.9-2.1-11-5-14.6
		c-0.9-1.1-2.1-2.1-2.9-2.9c-1.4-1.4-1.8-1.1-0.5,0.4c0.8,0.9,1.9,1.9,2.7,3c2.7,3.5,4.2,8.5,4.1,14.1c-0.1,5-1.1,11.6,0.2,17.5
		c0.6,2.4,2.2,4.3,3.9,5.8c1.6,1.4,4.2,5.8,4.9,7.7c1.9,4.9,5.6,8.5,6.5,12.5c0.9,3.6,0.8,7.4-0.3,10.7c-1,3.1-2.9,6.2-4.6,9.4
		c-0.4,1.3,0.2,12.8,0.2,13c0,0.1,3.7,12.9,1.9,15.2c-3.4,6.6-4.3,13.4-5.3,19.7c-0.7,3.7-1.4,7.4-2.4,10.8c-0.5-1.3-1.1-2.5-2-3.7
		c-4.1-5.1-9.3-8.4-14.1-12c-4.3-3.4-8.7-6.8-9.6-11.5c-2.4-10.5,0.5-21.7,5.5-30.6c1.3-2.2,3-4.4,3.4-7.3
		c0.9-6.3-0.1-12.4-1.8-17.5c-2.2-6.7-3-6.4-1.2,0.3c1.4,5,2.1,10.9,1,16.8c-0.4,2.2-2,4.1-3.4,6.4c-5.7,9-9.2,20.8-7.1,32.5
		c1.3,6.2,6.1,10.7,10.5,14.1c4.9,4.1,9.7,7.2,12.8,11.7c1.7,2.2,1.9,5.5,1.4,8.3c-0.6,3.1-11.8,30.2-16.8,36.9
		c-0.1-0.5-0.3-0.9-0.5-1.4c-3.5-6.4-9.1-10.5-14.1-14.9c-16.9-10.4-8.1-22.9-7-26.6c1.2-4.1,0.2-8.2-1.2-11.7
		c-1.5-3.8-3.2-6.6-3.8-10.1c-0.7-4-2.2-6.9-1.4-10.1c1-4.2,0.1-4.4-1-0.3c-0.9,3.6,0.3,6.8,0.9,10.6s2.2,6.8,3.4,10.5
		c1.1,3.3,1.9,7,0.7,10.2c-1.3,3.5-16,18.3,6.6,30.4c5,4.9,10.1,8.8,12.5,14.1c0.9,1.4-0.1,3.8-1.2,5.9c-1.1,1.8-2.8,3.8-4,6.4
		c-7.3,9.6-21.3,31.6-21.8,31.2c-1.4-4.1-25.7-33.4-26-33.7c-6.6-13.3-7.3-30.3-7.9-45.6c-0.1-3.8-0.1-7.4-0.2-11.1
		c0.1-0.1,0.2-0.3,0.2-0.4c0.8-1.9,4.1-2.8,7.2-5c5.8-4.2,8.4-11,9.7-17c0.9-4.2-0.4-7.5,0.6-9.5c1.9-5,2.8-10.2,3.9-14.9
		c0.9-4.1,0.4-8.2,0.3-11.7c0-3.8-0.2-7.3,1.5-9.8c0.7-1.2,2.4-2,4-2.8c2.2-0.9,4.6-1.6,7-2.3s4.6-1.2,6.9-2.1
		c1.5-0.4,3.4-1.2,4.4-3c1-2.2,0.5-4.5-0.4-6.3c-0.8-1.8-1.9-3.3-2.2-4.8c-1.1-4.9-0.2-10.1,0.6-14.4c1.2-6,0.4-6.2-1-0.2
		c-1,4.3-2.1,9.6-1.1,14.9c0.4,2,1.4,3.6,2.1,5.2c0.6,1.6,1,3.4,0.2,4.7c-0.3,0.9-1.8,1.2-3.3,1.8c-2.2,0.7-4.4,1.2-6.8,1.8
		s-4.9,1.2-7.4,2.1c-1.8,0.6-4,1.6-5.5,3.6c-2.3,3.5-2.5,7.7-2.4,11.5c-0.1,3.8,0.3,7.6-0.6,10.8c-1.3,4.8-2.4,9.8-4.2,14.2
		c-1.5,4-0.4,7.7-1.1,10c-1.6,5.5-3.8,11.2-8.1,13.8c-1.3,0.8-3,1.5-4.7,2.6c-0.4-13.6-1.5-26.2-6-38.7c-0.4-1-0.8-2.1-1.2-3.1
		c0.9-1.2,1.9-2.6,2.6-4.4c0.6-2.6,2.1-19.6,2-19.2c0.1-0.6-0.1-3.1-0.1-3.9c-0.1-2.4-0.3-4.8-0.5-7.2c-0.2-2.5-0.3-4.9-0.6-7.2
		c-0.1-0.9-0.2-1.7-0.2-2.5c0-0.3,0-0.8-0.2-1.4c-0.8-2.4-2.4-4.2-2.4-6c-0.1-2.8,1.3-5.8,2.1-8.5c1.1-3.3,1.5-6.5,0.4-9.4
		c-1.5-3.5-2.2-3.1-0.9,0.3c1,2.6,0.4,5.5-0.7,8.7c-0.9,2.6-2.4,5.6-2.5,8.9c0,2.6,1.6,4.6,2.2,6.6c0.1,0.2,0,0.5,0.1,1
		c0.1,0.8,0.1,1.7,0.1,2.5c0.1,2.4,0.2,4.8,0.3,7.2c0.1,2.4,0.1,4.8,0.2,7.2c0,0.8,0,1.6,0,2.5c0,0.5,0,0.8,0,0.9
		c0,0.2-3.1,19.7-3.5,20.2c-4.6-9.9-22.5-29.5-22.9-30.1c-17.7-31.7-18.5-30.3-3.6,2.2c0.5,1.3,9.2,11.3,9.3,11.5
		c5.9,8.5,9.2,12.6,12.9,23.9c-0.1,0.7,3.3,19.8,3.3,20.2c5,31.9-4.9,53,3.5,77.2"/>
</g>
</svg>
