<?xml version="1.0" encoding="utf-8"?>
<!-- Generator: Adobe Illustrator 26.0.3, SVG Export Plug-In . SVG Version: 6.00 Build 0)  -->
<svg version="1.1" id="Capa_1" xmlns="http://www.w3.org/2000/svg" xmlns:xlink="http://www.w3.org/1999/xlink" x="0px" y="0px"
	 viewBox="0 0 800 800" style="enable-background:new 0 0 800 800;" xml:space="preserve">
<g>
	<g>
		<path d="M369.7,635.1c5.9,12.8,9.5,38.2,7,58.8c-6.4,40.9-8.4,61.2-22.7,100.2c-3.3,9,120.3,6.5,118.6,0.1
			c-11.9-43.5-17.7-88.1-16.7-132.8c1.8-7.9,18.8-75.4,21.7-84.4c1.4-4.4,2.9-8.8,4.5-13.1c38.8-46.8,96-74.1,157.2-75.5
			c0.2,0,22.8,67.5,85.9,33.2c21.2-18,26.4-53.5,7.4-75.1c-45.2-41.7-82.5,2.7-82.2,5.9c-2.6,3-99.7,24.1-136.4,48.2
			c5.8-8.2,12.3-16,19.6-23.3c41-41.3,140.9-116.1,169.7-101.8c51.7,4.5,49.7-5.4,61.4-26.6c11.2-20.3,7.6-48.2-8.2-64.7
			c-16.9-17.6-44.1-21.7-65.9-10.1c-21.8,11.7-30.8,34.1-27.6,60.5c12.5,12.6-85.8,76.9-125.1,101.3c-14.9,9.2-22.2,4.1-24.5-13.5
			c-0.8-6-0.4-12.2-0.2-18.3c0.8-32.9,3.3-65.8,2.2-98.7c-0.4-11.4,1.7-21.1,5.8-29.6c22.5-13,46.1-22.8,71.2-29.5
			c18.7,16.4,43.6,19.7,65,7.2c23.6-13.6,33.2-42.2,22.9-68.1c-9.3-23.5-35.1-37.2-61-32.4c-27.8,5.2-44.4,26.7-44.2,56.3
			c0,5-47,31.5-67.6,43.6c-7.4,1.4-13.6,1-19.4-1.3c-9-9.5-18-19-27.1-28.5c19.7-33.5,19-58-2.2-78.4c-18.1-17.5-46.1-20.3-67.7-6.8
			c-21.9,13.7-30.9,41.4-21.5,65.9c10.3,26.7,27.5,34.4,72.3,30.2c13.4,14.2,26.9,28.3,40.3,42.5c8.5,15.6,14.6,32.2,15.5,50.8
			c0.5,10.3,0.6,20.6,0.5,30.8c-37.5-25.8-75.2-51.4-112.3-77.8c-41.8-29.6-82.4-68-88.5-121.1c8.5-2,16.6-5.8,23.8-11.8
			c6.1-5.1,22-27.1,22.3-35.1c1.4-34.4-19.6-61-50.4-73.9c-42.2-14.2-74.8,19.1-75.5,20c-3.3,3.3-43.5,88.8,58.5,102.3
			c5.5,46.9,32.9,83.8,68.3,114.4C390.6,315.3,485.3,382.7,486,383c-0.6,13.1,0.7,97-9.7,123.8c-7.8-5.7-13.8-13.6-17.3-22.7
			c17.4-12.8,20.6-36.1,11.9-54.8c-8.7-18.7-34.5-25.6-52.7-19c-15.8,5.8-25.2,20.2-25.7,35.6c-1.9,11.6,1.9,23.9,10.2,33.7
			c7.5,8.8,19.2,12.8,30.8,12.6c6,16.4,17.3,30,31.9,39.1c-5.5,10.7-11.8,21.1-18.9,31.1c-17.8,24.9-34.6,28-55.4,6
			c-25.5-26.9-48.8-56.1-71.8-85.3c-9.6-12.2-10.8-26.7-8.1-41.3c1.2-2.5,2.4-4.9,3.5-7.4c44.3-3.8,62.9-15.4,68.7-42.2
			c5.5-25.8-5.9-50.8-28.1-61.8c-8.8-4.3-18.6-6.2-28.3-5.7c-26.5-1.8-50.4,18.6-58.4,42.4c-7.2,21.2,4.2,44.2,22.4,55.3
			c-2.9,6-5.7,12-8.6,18c-5.1,0-11-2.3-16.6-7.2c-19.3-16.8-36.1-36.5-55.7-52.8c-15.4-12.9-24.6-27.4-28.4-43.8
			c5.9-27.7,11.8-55.3,17.8-83c2.3-1.2,4.9-2.2,8-3c34.3-9.1,48.7-49.5,30.3-79.9c-11.6-19-32.8-28.8-54.8-25.2
			c-24.5,4-40.7,19.5-45.8,43.7c-4.6,21.7,5.5,43.7,25,56.8c3.1,2.1,7,4.9,10.1,7.8c-6.2,28.8-12.3,57.6-18.5,86.4
			c-5.2-1.6-10.5-3.1-15.8-4.2c-5.2-36.9-18.2-53.4-44-57.2c-26.6-3.9-50.6,8.5-60.4,31.3c-10.1,23.6-3.3,50.4,16.8,65.8
			c22.6,17.4,43.1,14.5,81-14.2c7.4,1.4,14.7,3.5,21.9,6.2c21,18.7,42.1,37.6,63.5,56.3C276,476,322.3,537,356.5,606.8"/>
	</g>
</g>
</svg>
